<svg width="272" height="55" viewBox="0 0 272 55" fill="none" xmlns="http://www.w3.org/2000/svg">
<path d="M103.781 17.6953C104.739 18.0766 105.827 18.5301 106.732 18.874C107.559 19.2205 107.594 20.1284 106.811 20.9157L95.8209 31.9366C95.4395 32.3436 94.8907 32.669 94.3058 32.8348C93.7209 33.0006 93.1523 32.9921 92.7359 32.8111C91.9632 32.492 90.965 32.0751 89.8834 31.6343C82.2633 28.5482 77.2829 31.568 69.0263 38.6637L57.6568 48.4029C57.225 48.7733 56.6606 49.0445 56.0921 49.1547C55.5237 49.2648 54.9996 49.2046 54.6394 48.9876L44.4214 42.862C43.6965 42.4224 43.823 41.4754 44.7057 40.7341C47.1155 38.6797 51.9073 34.591 56.2055 30.8756C71.6964 17.4617 87.009 11.0543 103.781 17.6953Z" fill="#2DA771"/>
<path d="M6.32745 17.6939C5.36951 18.0753 4.28261 18.5289 3.37757 18.8729C2.55055 19.2195 2.51546 20.1275 3.29868 20.9149L14.2908 31.9365C14.6724 32.3436 15.2211 32.669 15.806 32.8348C16.391 33.0006 16.9595 32.992 17.3758 32.811C18.1483 32.4918 19.1461 32.0748 20.2275 31.6339C27.8457 28.5469 32.8263 31.5668 41.0839 38.663L52.4548 48.4028C52.8866 48.7732 53.4511 49.0444 54.0195 49.1546C54.5879 49.2647 55.1119 49.2044 55.472 48.9874L65.6868 42.8604C66.4115 42.4207 66.2848 41.4736 65.4019 40.7322C62.9919 38.6777 58.1995 34.5887 53.9007 30.8731C38.4079 17.4584 23.0955 11.051 6.32745 17.6939Z" fill="#2DA771"/>
<path d="M51.3831 8.8395C51.3831 5.75059 53.0344 3.22726 55.0558 3.22726C57.0773 3.22726 58.7286 5.75059 58.7286 8.8395V22.8918C58.7286 25.9807 57.0773 28.5041 55.0558 28.5041C53.0344 28.5041 51.3831 25.9807 51.3831 22.8918V8.8395Z" fill="#2DA771"/>
<path d="M128.479 14.9553V40.2273H122.323V14.9553H128.479ZM155.549 40.2273H149.393L139.097 24.6393V40.2273H132.941V14.9553H139.097L149.393 30.6153V14.9553H155.549V40.2273ZM188.631 14.9553V40.2273H182.475V25.0713L176.823 40.2273H171.855L166.167 25.0353V40.2273H160.011V14.9553H167.283L174.375 32.4513L181.395 14.9553H188.631ZM205.01 40.4793C202.634 40.4793 200.45 39.9273 198.458 38.8233C196.49 37.7193 194.918 36.1833 193.742 34.2153C192.59 32.2233 192.014 29.9913 192.014 27.5193C192.014 25.0473 192.59 22.8273 193.742 20.8593C194.918 18.8913 196.49 17.3553 198.458 16.2513C200.45 15.1473 202.634 14.5953 205.01 14.5953C207.386 14.5953 209.558 15.1473 211.526 16.2513C213.518 17.3553 215.078 18.8913 216.206 20.8593C217.358 22.8273 217.934 25.0473 217.934 27.5193C217.934 29.9913 217.358 32.2233 216.206 34.2153C215.054 36.1833 213.494 37.7193 211.526 38.8233C209.558 39.9273 207.386 40.4793 205.01 40.4793ZM205.01 34.8633C207.026 34.8633 208.634 34.1913 209.834 32.8473C211.058 31.5033 211.67 29.7273 211.67 27.5193C211.67 25.2873 211.058 23.5113 209.834 22.1913C208.634 20.8473 207.026 20.1753 205.01 20.1753C202.97 20.1753 201.338 20.8353 200.114 22.1553C198.914 23.4753 198.314 25.2633 198.314 27.5193C198.314 29.7513 198.914 31.5393 200.114 32.8833C201.338 34.2033 202.97 34.8633 205.01 34.8633ZM238.135 22.9473C237.679 22.1073 237.019 21.4713 236.155 21.0393C235.315 20.5833 234.319 20.3553 233.167 20.3553C231.175 20.3553 229.579 21.0153 228.379 22.3353C227.179 23.6313 226.579 25.3713 226.579 27.5553C226.579 29.8833 227.203 31.7073 228.451 33.0273C229.723 34.3233 231.463 34.9713 233.671 34.9713C235.183 34.9713 236.455 34.5873 237.487 33.8193C238.543 33.0513 239.311 31.9473 239.791 30.5073H231.979V25.9713H245.371V31.6953C244.915 33.2313 244.135 34.6593 243.031 35.9793C241.951 37.2993 240.571 38.3673 238.891 39.1833C237.211 39.9993 235.315 40.4073 233.203 40.4073C230.707 40.4073 228.475 39.8673 226.507 38.7873C224.563 37.6833 223.039 36.1593 221.935 34.2153C220.855 32.2713 220.315 30.0513 220.315 27.5553C220.315 25.0593 220.855 22.8393 221.935 20.8953C223.039 18.9273 224.563 17.4033 226.507 16.3233C228.451 15.2193 230.671 14.6673 233.167 14.6673C236.191 14.6673 238.735 15.3993 240.799 16.8633C242.887 18.3273 244.267 20.3553 244.939 22.9473H238.135ZM261.668 40.2273L256.412 30.6873H254.936V40.2273H248.78V14.9553H259.112C261.104 14.9553 262.796 15.3033 264.188 15.9993C265.604 16.6953 266.66 17.6553 267.356 18.8793C268.052 20.0793 268.4 21.4233 268.4 22.9113C268.4 24.5913 267.92 26.0913 266.96 27.4113C266.024 28.7313 264.632 29.6673 262.784 30.2193L268.616 40.2273H261.668ZM254.936 26.3313H258.752C259.88 26.3313 260.72 26.0553 261.272 25.5033C261.848 24.9513 262.136 24.1713 262.136 23.1633C262.136 22.2033 261.848 21.4473 261.272 20.8953C260.72 20.3433 259.88 20.0673 258.752 20.0673H254.936V26.3313Z" fill="#2DA771"/>
</svg>
